<?xml version="1.0" encoding="utf-8"?>
<!-- Generator: Adobe Illustrator 24.2.0, SVG Export Plug-In . SVG Version: 6.00 Build 0)  -->
<svg version="1.1" id="Ebene_1" xmlns="http://www.w3.org/2000/svg" xmlns:xlink="http://www.w3.org/1999/xlink" x="0px" y="0px"
	 viewBox="0 0 1920 980" style="enable-background:new 0 0 1920 980;" xml:space="preserve">
<image style="overflow:visible;enable-background:new    ;" width="8000" height="4092" id="_x3C_background_x3E_" xlink:href="CF8A6451E6D5B7F7.png"  transform="matrix(0.2399 0 0 0.2399 0.3403 -0.8659)">
</image>
<image style="overflow:visible;enable-background:new    ;" width="7013" height="2479" id="_x3C_notes_x3E_" xlink:href="CF8A6451E6D5B7F5.png"  transform="matrix(0.2397 0 0 0.2397 101.8929 297.4639)">
</image>
<g id="_x3C_buttons-row-3_x3E_">
	
		<image style="overflow:visible;enable-background:new    ;" width="421" height="421" id="_x3C_btn3-08-hover_x3E_" xlink:href="CF8A6451E6D5B7FB.png"  transform="matrix(0.236 0 0 0.236 158.92 698.9349)">
	</image>
	
		<image style="overflow:visible;enable-background:new    ;" width="421" height="421" id="_x3C_btn3-08_x3E_" xlink:href="CF8A6451E6D5B7FD.png"  transform="matrix(0.236 0 0 0.236 158.92 698.9349)">
	</image>
	
		<image style="overflow:visible;enable-background:new    ;" width="417" height="421" id="_x3C_btn3-07-hover_x3E_" xlink:href="CF8A6451E6D5B7FF.png"  transform="matrix(0.2371 0 0 0.2371 371.5577 698.6983)">
	</image>
	
		<image style="overflow:visible;enable-background:new    ;" width="417" height="421" id="_x3C_btn3-07_x3E_" xlink:href="CF8A6451E6D5B7FC.png"  transform="matrix(0.2371 0 0 0.2371 371.5577 698.6983)">
	</image>
	
		<image style="overflow:visible;enable-background:new    ;" width="421" height="421" id="_x3C_btn3-06-hover_x3E_" xlink:href="CF8A6451E6D5B7F4.png"  transform="matrix(0.236 0 0 0.236 583.72 698.9349)">
	</image>
	
		<image style="overflow:visible;enable-background:new    ;" width="421" height="421" id="_x3C_btn3-06_x3E_" xlink:href="CF8A6451E6D5B7F6.png"  transform="matrix(0.236 0 0 0.236 583.72 698.9349)">
	</image>
	
		<image style="overflow:visible;enable-background:new    ;" width="421" height="421" id="_x3C_btn3-05-hover_x3E_" xlink:href="CF8A6451E6D5B7F2.png"  transform="matrix(0.236 0 0 0.236 796.84 698.9349)">
	</image>
	
		<image style="overflow:visible;enable-background:new    ;" width="421" height="421" id="_x3C_btn3-05_x3E_" xlink:href="FF007FD65CE396B4.png"  transform="matrix(0.236 0 0 0.236 796.84 698.9349)">
	</image>
	
		<image style="overflow:visible;enable-background:new    ;" width="417" height="421" id="_x3C_btn3-04-hover_x3E_" xlink:href="FF007FD65CE396B3.png"  transform="matrix(0.2371 0 0 0.2371 1009.7177 698.6983)">
	</image>
	
		<image style="overflow:visible;enable-background:new    ;" width="417" height="421" id="_x3C_btn3-04_x3E_" xlink:href="FF007FD65CE396CC.png"  transform="matrix(0.2371 0 0 0.2371 1009.7177 698.6983)">
	</image>
	
		<image style="overflow:visible;enable-background:new    ;" width="421" height="421" id="_x3C_btn3-03-hover_x3E_" xlink:href="FF007FD65CE396CF.png"  transform="matrix(0.236 0 0 0.236 1221.88 698.9349)">
	</image>
	
		<image style="overflow:visible;enable-background:new    ;" width="421" height="421" id="_x3C_btn3-03_x3E_" xlink:href="FF007FD65CE396CD.png"  transform="matrix(0.236 0 0 0.236 1221.88 698.9349)">
	</image>
	
		<image style="overflow:visible;enable-background:new    ;" width="417" height="421" id="_x3C_btn3-02-hover_x3E_" xlink:href="FF007FD65CE396D3.png"  transform="matrix(0.2371 0 0 0.2371 1435.2377 698.6983)">
	</image>
	
		<image style="overflow:visible;enable-background:new    ;" width="417" height="421" id="_x3C_btn3-02_x3E_" xlink:href="FF007FD65CE396D4.png"  transform="matrix(0.2371 0 0 0.2371 1435.2377 698.6983)">
	</image>
	
		<image style="overflow:visible;enable-background:new    ;" width="417" height="421" id="_x3C_btn3-01-hover_x3E_" xlink:href="FF007FD65CE396D7.png"  transform="matrix(0.2371 0 0 0.2371 1647.6377 698.6983)">
	</image>
	
		<image style="overflow:visible;enable-background:new    ;" width="417" height="413" id="_x3C_btn3-01_x3E_" xlink:href="FF007FD65CE396D5.png"  transform="matrix(0.2377 0 0 0.2377 1647.5216 699.532)">
	</image>
</g>
<g id="_x3C_Buttons-row-2_x3E_">
	
		<image style="overflow:visible;enable-background:new    ;" width="421" height="417" id="_x3C_btn2-08-hover_x3E_" xlink:href="FF007FD65CE396D2.png"  transform="matrix(0.2371 0 0 0.2371 157.6834 449.7577)">
	</image>
	
		<image style="overflow:visible;enable-background:new    ;" width="421" height="417" id="_x3C_btn2-08_x3E_" xlink:href="FF007FD65CE396F7.png"  transform="matrix(0.2371 0 0 0.2371 157.6834 449.7577)">
	</image>
	
		<image style="overflow:visible;enable-background:new    ;" width="417" height="417" id="_x3C_btn2-07-hover_x3E_" xlink:href="FF007FD65CE396F1.png"  transform="matrix(0.2383 0 0 0.2383 369.6 449.52)">
	</image>
	
		<image style="overflow:visible;enable-background:new    ;" width="417" height="417" id="_x3C_btn2-07_x3E_" xlink:href="FF007FD65CE396F3.png"  transform="matrix(0.2383 0 0 0.2383 369.6 449.52)">
	</image>
	
		<image style="overflow:visible;enable-background:new    ;" width="417" height="417" id="_x3C_btn2-06-hover_x3E_" xlink:href="FF007FD65CE396FE.png"  transform="matrix(0.2383 0 0 0.2383 582.48 449.52)">
	</image>
	
		<image style="overflow:visible;enable-background:new    ;" width="417" height="417" id="_x3C_btn2-06_x3E_" xlink:href="FF007FD65CE396FF.png"  transform="matrix(0.2383 0 0 0.2383 582.48 449.52)">
	</image>
	
		<image style="overflow:visible;enable-background:new    ;" width="417" height="417" id="_x3C_btn2-05-hover_x3E_" xlink:href="FF007FD65CE396F2.png"  transform="matrix(0.2386 0 0 0.2386 795.4199 449.46)">
	</image>
	
		<image style="overflow:visible;enable-background:new    ;" width="417" height="417" id="_x3C_btn2-05_x3E_" xlink:href="FF007FD65CE396F5.png"  transform="matrix(0.2386 0 0 0.2386 795.4199 449.46)">
	</image>
	
		<image style="overflow:visible;enable-background:new    ;" width="421" height="417" id="_x3C_btn2-04-hover_x3E_" xlink:href="FF007FD65CE396F6.png"  transform="matrix(0.2374 0 0 0.2374 1008.3031 449.6979)">
	</image>
	
		<image style="overflow:visible;enable-background:new    ;" width="421" height="417" id="_x3C_btn2-04_x3E_" xlink:href="FF007FD65CE396F4.png"  transform="matrix(0.2374 0 0 0.2374 1008.3031 449.6979)">
	</image>
	
		<image style="overflow:visible;enable-background:new    ;" width="421" height="417" id="_x3C_btn2-03-hover_x3E_" xlink:href="FF007FD65CE396CE.png"  transform="matrix(0.2371 0 0 0.2371 1221.6034 449.7577)">
	</image>
	
		<image style="overflow:visible;enable-background:new    ;" width="421" height="417" id="_x3C_btn2-03_x3E_" xlink:href="FF007FD65CE39716.png"  transform="matrix(0.2371 0 0 0.2371 1221.6034 449.7577)">
	</image>
	
		<image style="overflow:visible;enable-background:new    ;" width="417" height="417" id="_x3C_btn2-02-hover_x3E_" xlink:href="FF007FD65CE39729.png"  transform="matrix(0.2383 0 0 0.2383 1433.52 449.52)">
	</image>
	
		<image style="overflow:visible;enable-background:new    ;" width="417" height="417" id="_x3C_btn2-02_x3E_" xlink:href="FF007FD65CE3972A.png"  transform="matrix(0.2383 0 0 0.2383 1433.52 449.52)">
	</image>
	
		<image style="overflow:visible;enable-background:new    ;" width="421" height="417" id="_x3C_btn2-01-hover_x3E_" xlink:href="FF007FD65CE39728.png"  transform="matrix(0.2371 0 0 0.2371 1646.6434 449.7577)">
	</image>
	
		<image style="overflow:visible;enable-background:new    ;" width="421" height="417" id="_x3C_btn2-01_x3E_" xlink:href="FF007FD65CE3972E.png"  transform="matrix(0.2371 0 0 0.2371 1646.6434 449.7577)">
	</image>
</g>
<g id="_x3C_buttons-row-1_x3E_">
	
		<image style="overflow:visible;enable-background:new    ;" width="421" height="417" id="_x3C_btn1-08-hover_x3E_" xlink:href="FF007FD65CE3972B.png"  transform="matrix(0.2371 0 0 0.2371 157.6834 199.4377)">
	</image>
	
		<image style="overflow:visible;enable-background:new    ;" width="421" height="417" id="_x3C_btn1-08_x3E_" xlink:href="FF007FD65CE39726.png"  transform="matrix(0.2371 0 0 0.2371 157.6834 199.4377)">
	</image>
	
		<image style="overflow:visible;enable-background:new    ;" width="417" height="417" id="_x3C_btn1-07-hover_x3E_" xlink:href="FF007FD65CE39727.png"  transform="matrix(0.2383 0 0 0.2383 370.32 199.2)">
	</image>
	
		<image style="overflow:visible;enable-background:new    ;" width="417" height="417" id="_x3C_btn1-07_x3E_" xlink:href="FF007FD65CE39736.png"  transform="matrix(0.2383 0 0 0.2383 370.32 199.2)">
	</image>
	
		<image style="overflow:visible;enable-background:new    ;" width="421" height="417" id="_x3C_btn1-06-hover_x3E_" xlink:href="FF007FD65CE39739.png"  transform="matrix(0.2371 0 0 0.2371 582.4834 199.4377)">
	</image>
	
		<image style="overflow:visible;enable-background:new    ;" width="421" height="417" id="_x3C_btn1-06_x3E_" xlink:href="FF007FD65CE39705.png"  transform="matrix(0.2371 0 0 0.2371 582.4834 199.4377)">
	</image>
	
		<image style="overflow:visible;enable-background:new    ;" width="421" height="417" id="_x3C_btn1-05-hover_x3E_" xlink:href="FF007FD65CE39707.png"  transform="matrix(0.2371 0 0 0.2371 795.6035 199.4377)">
	</image>
	
		<image style="overflow:visible;enable-background:new    ;" width="421" height="417" id="_x3C_btn1-05_x3E_" xlink:href="FF007FD65CE39704.png"  transform="matrix(0.2371 0 0 0.2371 795.6035 199.4377)">
	</image>
	
		<image style="overflow:visible;enable-background:new    ;" width="417" height="417" id="_x3C_btn1-04-hover_x3E_" xlink:href="FF007FD65CE3971B.png"  transform="matrix(0.2383 0 0 0.2383 1008.48 199.2)">
	</image>
	
		<image style="overflow:visible;enable-background:new    ;" width="417" height="417" id="_x3C_btn1-04_x3E_" xlink:href="FF007FD65CE3971D.png"  transform="matrix(0.2383 0 0 0.2383 1008.48 199.2)">
	</image>
	
		<image style="overflow:visible;enable-background:new    ;" width="421" height="417" id="_x3C_btn1-03-hover_x3E_" xlink:href="FF007FD65CE3971F.png"  transform="matrix(0.2371 0 0 0.2371 1220.6434 199.4377)">
	</image>
	
		<image style="overflow:visible;enable-background:new    ;" width="421" height="417" id="_x3C_btn1-03_x3E_" xlink:href="FF007FD65CE3971C.png"  transform="matrix(0.2371 0 0 0.2371 1220.6434 199.4377)">
	</image>
	
		<image style="overflow:visible;enable-background:new    ;" width="417" height="417" id="_x3C_btn1-02-hover_x3E_" xlink:href="FF007FD65CE39706.png"  transform="matrix(0.2383 0 0 0.2383 1434 199.2)">
	</image>
	
		<image style="overflow:visible;enable-background:new    ;" width="417" height="417" id="_x3C_btn1-02_x3E_" xlink:href="FF007FD65CE39701.png"  transform="matrix(0.2383 0 0 0.2383 1434 199.2)">
	</image>
	
		<image style="overflow:visible;enable-background:new    ;" width="417" height="417" id="_x3C_btn1-01-hover_x3E_" xlink:href="FF007FD65CE39702.png"  transform="matrix(0.2383 0 0 0.2383 1646.4 199.2)">
	</image>
	
		<image style="overflow:visible;enable-background:new    ;" width="417" height="413" id="_x3C_btn1-01_x3E_" xlink:href="FF007FD65CE39760.png"  transform="matrix(0.2377 0 0 0.2377 1646.5216 199.797)">
	</image>
</g>
</svg>
