<?xml version="1.0" standalone="no"?>
<!DOCTYPE svg PUBLIC "-//W3C//DTD SVG 20010904//EN"
 "http://www.w3.org/TR/2001/REC-SVG-20010904/DTD/svg10.dtd">
<svg version="1.0" xmlns="http://www.w3.org/2000/svg"
 width="800.000000pt" height="800.000000pt" viewBox="0 0 800.000000 800.000000"
 preserveAspectRatio="xMidYMid meet">
<metadata>
Created by potrace 1.14, written by Peter Selinger 2001-2017
</metadata>
<g transform="translate(0.000000,800.000000) scale(0.100000,-0.100000)"
fill="#000000" stroke="none">
<path d="M387 7919 c-111 -26 -226 -123 -280 -236 l-32 -68 0 -3615 0 -3615
32 -68 c42 -89 121 -168 210 -210 l68 -32 3615 0 3615 0 68 32 c89 42 168 121
210 210 l32 68 0 3615 0 3615 -32 68 c-42 89 -121 168 -210 210 l-68 32 -3595
2 c-2066 0 -3611 -3 -3633 -8z m7251 -150 c69 -34 104 -71 138 -144 l24 -50 0
-3576 0 -3576 -31 -61 c-34 -69 -71 -104 -144 -138 l-50 -24 -3575 0 -3575 0
-50 24 c-73 34 -110 69 -144 138 l-31 61 0 3576 0 3576 24 50 c34 73 69 110
138 144 l61 31 3577 0 3577 0 61 -31z"/>
<path d="M3685 7589 c-1151 -120 -2147 -862 -2610 -1944 -369 -865 -348 -1872
56 -2715 164 -341 344 -600 599 -863 147 -152 250 -243 407 -359 394 -293 906
-507 1376 -575 l117 -17 0 -343 0 -343 95 0 95 0 0 335 0 335 25 0 25 0 0
-335 0 -335 94 0 c53 0 96 4 98 10 2 6 23 6 63 0 80 -13 232 -13 295 1 33 7
56 18 65 32 35 55 45 373 15 480 -19 67 -38 72 -252 72 l-188 0 0 31 c0 27 4
32 31 38 17 3 57 6 88 6 126 0 384 39 576 86 411 102 840 310 1178 571 403
312 747 748 959 1215 189 418 282 822 295 1284 18 645 -141 1252 -474 1807
-215 358 -534 703 -878 949 -452 323 -984 523 -1534 578 -120 12 -499 11 -616
-1z m633 -56 c73 -9 129 -19 125 -23 -4 -3 -27 -13 -50 -20 -24 -7 -43 -17
-43 -21 0 -4 42 -14 93 -24 433 -78 855 -251 1192 -487 287 -201 556 -473 747
-753 73 -107 144 -225 136 -225 -3 0 -20 21 -38 48 -44 63 -99 121 -131 138
-23 12 -29 11 -39 -1 -7 -8 -18 -15 -24 -15 -6 0 -20 -16 -30 -35 -21 -38 -76
-85 -99 -85 -8 0 -23 -11 -33 -25 -10 -14 -22 -25 -27 -25 -4 0 -21 -10 -38
-22 -27 -20 -31 -21 -39 -7 -27 47 -198 247 -290 339 -487 487 -1127 740
-1810 717 -519 -18 -985 -184 -1416 -505 -28 -21 -32 -22 -59 -8 -15 8 -51 40
-80 70 -28 31 -56 56 -62 56 -6 0 -22 13 -35 29 -39 46 -75 60 -117 48 -110
-33 -342 -243 -484 -439 -89 -123 -119 -176 -143 -253 -18 -56 -18 -57 1 -71
10 -8 15 -14 10 -14 -10 0 43 -38 105 -77 25 -15 54 -36 65 -46 11 -10 36 -28
55 -39 74 -45 73 -41 33 -126 -128 -276 -185 -453 -228 -707 l-22 -130 -36 -3
c-20 -2 -101 4 -179 14 -79 9 -162 19 -185 21 -43 5 -43 5 -38 42 16 122 38
257 54 327 l18 81 -33 12 c-36 13 -40 24 -24 65 9 25 10 25 44 11 l34 -15 23
68 c179 540 548 1071 986 1419 269 214 547 367 903 494 91 33 170 61 177 64 8
3 9 13 3 34 -8 30 -8 30 45 46 65 19 259 52 375 64 138 14 462 11 608 -6z m23
-964 c157 -26 327 -78 447 -134 50 -24 92 -46 92 -50 0 -3 -6 -21 -14 -40 -8
-18 -13 -35 -11 -37 2 -2 6 -21 8 -41 2 -21 6 -39 8 -40 36 -24 90 -66 111
-85 26 -24 27 -26 11 -56 -20 -39 -112 -154 -162 -204 -21 -20 -59 -47 -84
-60 -81 -40 -233 -43 -225 -4 2 11 -11 27 -39 44 -53 34 -97 94 -118 163 -14
44 -16 81 -13 202 6 186 4 204 -32 228 -16 11 -27 22 -24 26 2 4 -5 14 -17 22
-15 11 -17 16 -7 20 9 4 9 6 -2 6 -22 1 -97 41 -80 42 8 1 4 5 -10 9 -51 16
34 11 161 -11z m2458 -1238 c21 -70 49 -176 62 -237 l24 -112 37 14 c36 12 37
12 42 -14 11 -52 25 -168 32 -264 l7 -98 -42 0 -41 0 0 -62 0 -63 -216 9
c-179 7 -218 6 -225 -5 -5 -8 -9 -49 -9 -91 0 -185 -60 -519 -132 -738 -57
-175 -169 -413 -271 -574 -37 -59 -75 -33 278 -194 44 -20 84 -39 89 -43 20
-17 -198 -301 -359 -468 -376 -388 -828 -655 -1327 -786 -234 -61 -474 -95
-669 -95 -94 0 -99 1 -99 21 0 12 8 23 19 26 13 3 22 17 26 44 4 22 12 39 20
39 7 0 15 18 19 42 4 23 11 47 15 53 5 5 11 21 14 35 6 26 31 101 46 135 25
55 34 52 -167 58 -344 11 -602 64 -916 189 -54 21 -99 38 -101 36 -1 -2 -7
-30 -15 -63 -14 -67 -46 -208 -60 -270 -5 -22 -12 -55 -15 -73 -4 -17 -10 -32
-15 -32 -22 0 -208 94 -322 163 -244 147 -414 283 -609 485 -72 75 -135 144
-140 154 -8 14 -2 22 33 45 24 15 66 45 94 65 28 21 55 38 60 38 5 0 32 18 59
40 28 22 55 40 60 40 6 0 20 8 33 18 l23 18 -56 71 c-154 198 -318 493 -400
717 -43 117 -97 324 -119 456 -32 194 -45 468 -29 633 l6 67 41 0 42 0 -9
-102 c-10 -126 -2 -379 18 -513 63 -446 244 -866 522 -1210 96 -119 287 -306
398 -391 324 -247 668 -398 1060 -465 152 -27 477 -37 626 -20 545 62 1015
283 1403 661 396 385 642 872 721 1422 20 137 29 399 18 521 l-9 97 40 0 39 0
-6 78 c-7 88 -43 266 -80 392 -14 46 -23 88 -21 92 2 3 28 14 57 24 28 9 77
31 107 47 53 29 74 36 168 58 42 11 42 11 43 57 l0 47 20 -49 c11 -28 37 -106
58 -175z m-2549 -4411 c60 -16 75 -55 74 -185 0 -179 -23 -205 -164 -192 -103
9 -100 3 -100 192 l0 163 33 11 c73 23 107 25 157 11z"/>
<path d="M1350 1110 l0 -70 95 0 95 0 0 70 0 70 -95 0 -95 0 0 -70z"/>
<path d="M7070 1103 l0 -78 -167 4 c-174 3 -227 -4 -256 -37 -27 -30 -43 -244
-28 -389 8 -78 17 -123 27 -135 33 -35 208 -49 354 -28 41 6 66 6 68 0 2 -6
46 -10 98 -10 l94 0 0 375 0 375 -95 0 -95 0 0 -77z m-32 -194 l32 -11 0 -163
0 -163 -36 -17 c-46 -22 -175 -18 -199 6 -24 24 -40 176 -27 257 12 68 31 95
77 106 29 6 116 -2 153 -15z"/>
<path d="M660 730 l0 -300 95 0 95 0 0 203 c0 244 5 269 59 285 50 16 130 15
161 -1 41 -21 49 -65 49 -284 l1 -203 96 0 96 0 -4 259 c-3 245 -4 261 -24
288 -33 44 -94 52 -376 52 l-248 0 0 -299z"/>
<path d="M1350 730 l0 -300 95 0 95 0 0 300 0 300 -95 0 -95 0 0 -300z"/>
<path d="M1580 659 l0 -370 93 3 92 3 3 78 3 78 57 -8 c77 -11 244 -7 304 7
30 8 54 21 63 34 34 52 44 385 14 477 -23 70 -18 69 -340 69 l-289 -1 0 -370z
m376 270 c53 -14 60 -24 75 -117 16 -98 5 -194 -28 -232 -24 -29 -28 -30 -103
-30 -43 0 -90 4 -104 10 l-26 10 0 164 c0 161 1 166 23 177 51 28 101 33 163
18z"/>
<path d="M2260 660 l0 -370 95 0 95 0 0 81 0 81 63 -9 c79 -10 255 -7 305 6
21 6 45 16 55 23 26 20 38 108 38 278 0 181 -13 248 -51 267 -18 9 -101 13
-312 12 l-288 0 0 -369z m422 256 c23 -14 36 -61 39 -141 5 -126 1 -162 -27
-194 -25 -30 -29 -31 -103 -31 -43 0 -92 5 -110 11 l-31 11 0 159 c0 159 0
159 25 175 14 9 40 20 58 25 38 9 124 1 149 -15z"/>
<path d="M3047 1018 c-66 -14 -76 -33 -89 -177 -12 -126 0 -319 22 -360 18
-35 71 -43 288 -44 217 -1 254 5 304 50 24 22 27 163 3 163 -8 0 -15 -6 -15
-14 0 -8 -11 -28 -25 -44 -31 -37 -123 -62 -228 -62 -126 0 -145 14 -160 123
l-6 37 225 0 224 0 -1 108 c0 162 -6 183 -54 207 -35 17 -63 20 -240 22 -111
1 -221 -3 -248 -9z m302 -98 c44 -12 51 -24 51 -82 l0 -48 -130 0 -131 0 6 38
c4 20 9 45 12 55 11 39 115 59 192 37z"/>
<path d="M4675 1024 c-76 -19 -85 -25 -97 -67 -18 -59 -18 -409 0 -459 19 -54
53 -61 317 -60 227 0 265 5 284 40 21 40 34 242 23 358 -14 142 -21 160 -69
175 -38 12 -418 23 -458 13z m290 -108 c44 -19 50 -42 49 -176 -1 -129 -15
-187 -50 -200 -37 -14 -120 -12 -158 4 -32 13 -35 19 -46 84 -13 69 -10 229 5
264 15 36 135 51 200 24z"/>
<path d="M5332 1015 c-92 -26 -92 -25 -92 -115 l0 -80 58 0 57 -1 -39 -14
c-21 -7 -43 -18 -48 -23 -14 -14 -32 -192 -24 -244 13 -84 24 -90 175 -102 88
-6 156 -6 204 1 40 5 74 6 75 1 2 -4 46 -8 98 -8 l94 0 -2 278 -3 277 -40 20
c-36 18 -63 20 -250 22 -159 2 -223 -1 -263 -12z m341 -86 c42 -22 48 -48 17
-79 -18 -18 -33 -20 -141 -20 l-122 0 6 38 c10 58 35 72 134 72 46 0 94 -5
106 -11z m27 -272 c0 -101 -11 -111 -132 -116 -74 -2 -92 0 -108 14 -29 26
-36 80 -17 121 20 41 51 50 185 53 l72 1 0 -73z"/>
<path d="M5930 731 l0 -301 95 0 95 0 0 209 c0 119 4 221 10 238 12 34 58 53
127 53 82 0 123 -32 123 -95 0 -25 1 -25 95 -25 l95 0 0 53 c0 28 -5 69 -11
90 -18 66 -41 71 -356 75 l-273 3 0 -300z"/>
</g>
</svg>
